# xmcd
#
# Track frame offsets: 
#        150
#        19668
#        34219
#        51534
#        66974
#        79029
#        100939
#        108709
#        122588
#        137203
#        154013
#        168194
#        186492
#        201956
#        215995
#        232385
#        268075
#
# Disc length: 3735 seconds
#
# Revision: 3
# Processed by: cddbd v1.5.2PL0 Copyright (c) Steve Scherf et al.
# Submitted via: ExactAudioCopy v0.95a4
#
DISCID=0a0e9511
DTITLE=Billy Joe Shaver - The Real Deal
DYEAR=2005
DGENRE=Country
TTITLE0=Live Forever (with Big and Rich)
TTITLE1=There's No Fool Like An Old Fool
TTITLE2=Livin' A Lovin' Lie
TTITLE3=It Just Aint There For Me No More
TTITLE4=Jesus Christ Is Still The King
TTITLE5=Slim Chance And The Can't Hardly Playboys (with Kevin Fowler)
TTITLE6=I Changed My Mind
TTITLE7=Sweet Melody
TTITLE8=Valentine (with Nanci Griffith)
TTITLE9=You Ought To Be With Me When I'm Alone
TTITLE10=Down The Road By The Way
TTITLE11=West Texas Waltz (with Kimmie Rhodes)
TTITLE12=The Real Deal
TTITLE13=If The Trailer's Rockin' Don't Come Knockin'
TTITLE14=Try And Try Again
TTITLE15=Aunt Jessie's Chicken Ranch
TTITLE16=Feliz Navidad (with Flaco Jimenez)
EXTD=
EXTT0=
EXTT1=
EXTT2=
EXTT3=
EXTT4=
EXTT5=
EXTT6=
EXTT7=
EXTT8=
EXTT9=
EXTT10=
EXTT11=
EXTT12=
EXTT13=
EXTT14=
EXTT15=
EXTT16=
PLAYORDER=
